<svg xmlns:xlink="http://www.w3.org/1999/xlink" xmlns="http://www.w3.org/2000/svg" viewBox="0 0 266 150" fill="none" width="266"  height="150" ><path fill="#FFFFFF" d="M0 0h266v150H0z"></path><rect x="20.5" y="43.5" width="67" height="62" rx="1.5" fill="#FFFFFF" stroke="#CBD5E0"></rect><path d="M48.556 69h10.888c.86 0 1.556-.696 1.556-1.556V56.556c0-.86-.696-1.556-1.556-1.556H48.556c-.86 0-1.556.696-1.556 1.556v10.888c0 .86.696 1.556 1.556 1.556zm0 0l8.555-8.556L61 64.334m-8.556-5.056a1.167 1.167 0 11-2.333 0 1.167 1.167 0 012.333 0z" stroke="#A0AEC0" stroke-width="1.2px" stroke-linecap="round" stroke-linejoin="round" fill="none"></path><path d="M26 88a1 1 0 011-1h48a1 1 0 110 2H27a1 1 0 01-1-1zM26 93a1 1 0 011-1h40a1 1 0 110 2H27a1 1 0 01-1-1z" fill="#A0AEC0"></path><path d="M26 98a1 1 0 011-1h11a1 1 0 110 2H27a1 1 0 01-1-1z" fill="#6366F1"></path><path d="M26 82.5a1.5 1.5 0 011.5-1.5h32a1.5 1.5 0 010 3h-32a1.5 1.5 0 01-1.5-1.5z" fill="#4A5568"></path><rect x="99.5" y="43.5" width="67" height="62" rx="1.5" fill="#FFFFFF" stroke="#CBD5E0"></rect><path d="M127.556 69h10.888c.86 0 1.556-.696 1.556-1.556V56.556c0-.86-.696-1.556-1.556-1.556h-10.888c-.86 0-1.556.696-1.556 1.556v10.888c0 .86.696 1.556 1.556 1.556zm0 0l8.555-8.556 3.889 3.89m-8.556-5.056a1.166 1.166 0 11-2.333 0 1.166 1.166 0 012.333 0z" stroke="#A0AEC0" stroke-width="1.2px" stroke-linecap="round" stroke-linejoin="round" fill="none"></path><path d="M105 88a1 1 0 011-1h48a1 1 0 010 2h-48a1 1 0 01-1-1zM105 93a1 1 0 011-1h40a1 1 0 010 2h-40a1 1 0 01-1-1z" fill="#A0AEC0"></path><path d="M105 98a1 1 0 011-1h11a1 1 0 010 2h-11a1 1 0 01-1-1z" fill="#6366F1"></path><path d="M105 82.5a1.5 1.5 0 011.5-1.5h32a1.5 1.5 0 010 3h-32a1.5 1.5 0 01-1.5-1.5z" fill="#4A5568"></path><rect x="178.5" y="43.5" width="67" height="62" rx="1.5" fill="#FFFFFF" stroke="#CBD5E0"></rect><path d="M206.556 69h10.888c.86 0 1.556-.696 1.556-1.556V56.556c0-.86-.696-1.556-1.556-1.556h-10.888c-.86 0-1.556.696-1.556 1.556v10.888c0 .86.696 1.556 1.556 1.556zm0 0l8.555-8.556 3.889 3.89m-8.556-5.056a1.166 1.166 0 11-2.333 0 1.166 1.166 0 012.333 0z" stroke="#A0AEC0" stroke-width="1.2px" stroke-linecap="round" stroke-linejoin="round" fill="none"></path><path d="M184 88a1 1 0 011-1h48a1 1 0 010 2h-48a1 1 0 01-1-1zM184 93a1 1 0 011-1h40a1 1 0 010 2h-40a1 1 0 01-1-1z" fill="#A0AEC0"></path><path d="M184 98a1 1 0 011-1h11a1 1 0 010 2h-11a1 1 0 01-1-1z" fill="#6366F1"></path><path d="M184 82.5a1.5 1.5 0 011.5-1.5h32a1.5 1.5 0 010 3h-32a1.5 1.5 0 01-1.5-1.5z" fill="#4A5568"></path></svg>