<svg xmlns:xlink="http://www.w3.org/1999/xlink" xmlns="http://www.w3.org/2000/svg" viewBox="0 0 266 150" fill="none" width="266"  height="150" ><path fill="#FFFFFF" d="M0 0h266v150H0z"></path><rect x="81" y="92" width="104" height="4" rx="2" fill="#A0AEC0"></rect><rect x="97" y="81" width="72" height="5" rx="2.5" fill="#4A5568"></rect><path d="M148 116a2 2 0 012-2h25a2 2 0 012 2v6a2 2 0 01-2 2h-25a2 2 0 01-2-2v-6z" fill="#6366F1"></path><rect x="89" y="114" width="55" height="10" rx="2" fill="#CBD5E0"></rect><rect x="85" y="100" width="97" height="4" rx="2" fill="#A0AEC0"></rect><path d="M119.778 61h26.444A3.778 3.778 0 00150 57.222V30.778A3.778 3.778 0 00146.222 27h-26.444A3.778 3.778 0 00116 30.778v26.444A3.778 3.778 0 00119.778 61zm0 0l20.778-20.778L150 49.667m-20.778-12.278a2.833 2.833 0 11-5.666 0 2.833 2.833 0 015.666 0z" stroke="#A0AEC0" stroke-width="3px" stroke-linecap="round" stroke-linejoin="round" fill="none"></path></svg>