<svg xmlns:xlink="http://www.w3.org/1999/xlink" xmlns="http://www.w3.org/2000/svg" viewBox="0 0 266 150" fill="none" width="266"  height="150" ><path fill="#FFFFFF" d="M0 0h266v150H0z"></path><rect x="96" y="22" width="74" height="5" rx="2.5" fill="#4A5568"></rect><rect x="87" y="31" width="92" height="4" rx="2" fill="#A0AEC0"></rect><path d="M65.5 83a.5.5 0 010 1h-41a.5.5 0 010-1h41z" fill="#E2E8F0"></path><rect x="20.5" y="69.5" width="49" height="58" rx="1.5" stroke="#CBD5E0" fill="none"></rect><circle cx="26" cy="89" r="2" fill="#A0AEC0"></circle><rect x="24" y="77" width="18" height="2" rx="1" fill="#4A5568"></rect><rect x="30" y="88" width="34" height="2" rx="1" fill="#A0AEC0"></rect><circle cx="26" cy="95" r="2" fill="#A0AEC0"></circle><rect x="30" y="94" width="34" height="2" rx="1" fill="#A0AEC0"></rect><circle cx="26" cy="101" r="2" fill="#A0AEC0"></circle><rect x="30" y="100" width="34" height="2" rx="1" fill="#A0AEC0"></rect><circle cx="26" cy="107" r="2" fill="#A0AEC0"></circle><rect x="30" y="106" width="34" height="2" rx="1" fill="#A0AEC0"></rect><rect x="24" y="73" width="10" height="2" rx="1" fill="#4A5568"></rect><path d="M24 116.5a2 2 0 012-2h38a2 2 0 012 2v4a2 2 0 01-2 2H26a2 2 0 01-2-2v-4z" fill="#A0AEC0"></path><path d="M124.5 83a.5.5 0 010 1h-41a.5.5 0 010-1h41z" fill="#E2E8F0"></path><rect x="79.5" y="69.5" width="49" height="58" rx="1.5" stroke="#6366F1" fill="none"></rect><circle cx="85" cy="89" r="2" fill="#A0AEC0"></circle><rect x="83" y="77" width="18" height="2" rx="1" fill="#4A5568"></rect><rect x="89" y="88" width="34" height="2" rx="1" fill="#A0AEC0"></rect><circle cx="85" cy="95" r="2" fill="#A0AEC0"></circle><rect x="89" y="94" width="34" height="2" rx="1" fill="#A0AEC0"></rect><circle cx="85" cy="101" r="2" fill="#A0AEC0"></circle><rect x="89" y="100" width="34" height="2" rx="1" fill="#A0AEC0"></rect><circle cx="85" cy="107" r="2" fill="#A0AEC0"></circle><rect x="89" y="106" width="34" height="2" rx="1" fill="#A0AEC0"></rect><rect x="83" y="73" width="10" height="2" rx="1" fill="#4A5568"></rect><path d="M183.5 83a.5.5 0 010 1h-41a.5.5 0 010-1h41z" fill="#E2E8F0"></path><rect x="138.5" y="69.5" width="49" height="58" rx="1.5" stroke="#CBD5E0" fill="none"></rect><circle cx="144" cy="89" r="2" fill="#A0AEC0"></circle><rect x="142" y="77" width="18" height="2" rx="1" fill="#4A5568"></rect><rect x="148" y="88" width="34" height="2" rx="1" fill="#A0AEC0"></rect><circle cx="144" cy="95" r="2" fill="#A0AEC0"></circle><rect x="148" y="94" width="34" height="2" rx="1" fill="#A0AEC0"></rect><circle cx="144" cy="101" r="2" fill="#A0AEC0"></circle><rect x="148" y="100" width="34" height="2" rx="1" fill="#A0AEC0"></rect><circle cx="144" cy="107" r="2" fill="#A0AEC0"></circle><rect x="148" y="106" width="34" height="2" rx="1" fill="#A0AEC0"></rect><rect x="142" y="73" width="10" height="2" rx="1" fill="#4A5568"></rect><path d="M142 116.5a2 2 0 012-2h38a2 2 0 012 2v4a2 2 0 01-2 2h-38a2 2 0 01-2-2v-4z" fill="#A0AEC0"></path><path d="M83 116.5a2 2 0 012-2h38a2 2 0 012 2v4a2 2 0 01-2 2H85a2 2 0 01-2-2v-4z" fill="#6366F1"></path><path d="M242.5 83a.5.5 0 010 1h-41a.5.5 0 010-1h41z" fill="#E2E8F0"></path><rect x="197.5" y="69.5" width="49" height="58" rx="1.5" stroke="#CBD5E0" fill="none"></rect><circle cx="203" cy="89" r="2" fill="#A0AEC0"></circle><rect x="201" y="77" width="18" height="2" rx="1" fill="#4A5568"></rect><rect x="207" y="88" width="34" height="2" rx="1" fill="#A0AEC0"></rect><circle cx="203" cy="95" r="2" fill="#A0AEC0"></circle><rect x="207" y="94" width="34" height="2" rx="1" fill="#A0AEC0"></rect><circle cx="203" cy="101" r="2" fill="#A0AEC0"></circle><rect x="207" y="100" width="34" height="2" rx="1" fill="#A0AEC0"></rect><circle cx="203" cy="107" r="2" fill="#A0AEC0"></circle><rect x="207" y="106" width="34" height="2" rx="1" fill="#A0AEC0"></rect><rect x="201" y="73" width="10" height="2" rx="1" fill="#4A5568"></rect><path d="M201 116.5a2 2 0 012-2h38a2 2 0 012 2v4a2 2 0 01-2 2h-38a2 2 0 01-2-2v-4z" fill="#A0AEC0"></path><path d="M118 43.5h30a1.5 1.5 0 011.5 1.5v4a1.5 1.5 0 01-1.5 1.5h-30a1.5 1.5 0 01-1.5-1.5v-4a1.5 1.5 0 011.5-1.5z" stroke="#6366F1" fill="none"></path><path fill="#6366F1" d="M117 43h16v7h-16z"></path></svg>