<svg width="266" height="150" viewBox="0 0 266 150" fill="none" xmlns="http://www.w3.org/2000/svg">
<path d="M0 0H266V150H0V0Z" fill="white"/>
<path d="M86 54.5H22C21.1716 54.5 20.5 55.188 20.5 56.0366V94.9634C20.5 95.812 21.1716 96.5 22 96.5H86C86.8284 96.5 87.5 95.812 87.5 94.9634V56.0366C87.5 55.188 86.8284 54.5 86 54.5Z" fill="white" stroke="#CBD5E0" stroke-width="2"/>
<path d="M166 54.5H102C101.172 54.5 100.5 55.188 100.5 56.0366V94.9634C100.5 95.812 101.172 96.5 102 96.5H166C166.828 96.5 167.5 95.812 167.5 94.9634V56.0366C167.5 55.188 166.828 54.5 166 54.5Z" fill="white" stroke="#CBD5E0" stroke-width="2"/>
<path d="M246 54.5H182C181.172 54.5 180.5 55.188 180.5 56.0366V94.9634C180.5 95.812 181.172 96.5 182 96.5H246C246.828 96.5 247.5 95.812 247.5 94.9634V56.0366C247.5 55.188 246.828 54.5 246 54.5Z" fill="white" stroke="#CBD5E0" stroke-width="2"/>
</svg>
