<svg width="266" height="150" viewBox="0 0 266 150" fill="none" xmlns="http://www.w3.org/2000/svg">
<path d="M0 0H266V150H0V0Z" fill="white"/>
<path d="M96 54.5H22C21.1716 54.5 20.5 55.188 20.5 56.0366V94.9634C20.5 95.812 21.1716 96.5 22 96.5H96C96.8284 96.5 97.5 95.812 97.5 94.9634V56.0366C97.5 55.188 96.8284 54.5 96 54.5Z" fill="white" stroke="#CBD5E0" stroke-width="2"/>
<path d="M244 54.5H110C109.172 54.5 108.5 55.188 108.5 56.0366V94.9634C108.5 95.812 109.172 96.5 110 96.5H244C244.828 96.5 245.5 95.812 245.5 94.9634V56.0366C245.5 55.188 244.828 54.5 244 54.5Z" fill="white" stroke="#CBD5E0" stroke-width="2"/>
</svg>
