<svg width="266" height="150" viewBox="0 0 266 150" fill="none" xmlns="http://www.w3.org/2000/svg">
<path d="M0 0H266V150H0V0Z" fill="white"/>
<path d="M174.5 62H66.1667C63.8655 62 62 63.9987 62 66.4643C62 68.9298 63.8655 70.9286 66.1667 70.9286H174.5C176.801 70.9286 178.667 68.9298 178.667 66.4643C178.667 63.9987 176.801 62 174.5 62Z" fill="#4A5568"/>
<path d="M211.167 78.0714H66.1667C63.8655 78.0714 62 80.0702 62 82.5357C62 85.0013 63.8655 87 66.1667 87H211.167C213.468 87 215.333 85.0013 215.333 82.5357C215.333 80.0702 213.468 78.0714 211.167 78.0714Z" fill="#4A5568"/>
</svg>
