<svg width="266" height="150" viewBox="0 0 266 150" fill="none" xmlns="http://www.w3.org/2000/svg">
<path d="M0 0H266V150H0V0Z" fill="white"/>
<path d="M195 32H72C70.8954 32 70 32.7561 70 33.6889V106.311C70 107.244 70.8954 108 72 108H195C196.105 108 197 107.244 197 106.311V33.6889C197 32.7561 196.105 32 195 32Z" fill="#E2E8F0"/>
<path d="M123.667 82.2288H142.333C142.683 82.2294 143.029 82.1603 143.352 82.0254C143.675 81.8904 143.969 81.6923 144.217 81.4423C144.465 81.1923 144.661 80.8953 144.796 80.5684C144.93 80.2414 144.999 79.8908 145 79.5365V60.6923C144.999 60.338 144.93 59.9874 144.796 59.6604C144.661 59.3334 144.465 59.0365 144.217 58.7865C143.969 58.5365 143.675 58.3384 143.352 58.2034C143.029 58.0685 142.683 57.9993 142.333 58H123.667C123.317 57.9993 122.971 58.0685 122.648 58.2034C122.325 58.3384 122.031 58.5365 121.783 58.7865C121.535 59.0365 121.339 59.3334 121.204 59.6604C121.07 59.9874 121.001 60.338 121 60.6923V79.5365C121.001 79.8908 121.07 80.2414 121.204 80.5684C121.339 80.8953 121.535 81.1923 121.783 81.4423C122.031 81.6923 122.325 81.8904 122.648 82.0254C122.971 82.1603 123.317 82.2294 123.667 82.2288ZM123.667 82.2288L138.333 67.4222L145 74.1528L123.667 82.2288Z" fill="#E2E8F0"/>
<path d="M123.667 82.2288H142.333C142.683 82.2294 143.029 82.1603 143.352 82.0254C143.675 81.8904 143.969 81.6923 144.217 81.4423C144.465 81.1923 144.661 80.8953 144.796 80.5684C144.93 80.2414 144.999 79.8908 145 79.5365V60.6923C144.999 60.338 144.93 59.9874 144.796 59.6604C144.661 59.3334 144.465 59.0365 144.217 58.7865C143.969 58.5365 143.675 58.3384 143.352 58.2034C143.029 58.0685 142.683 57.9993 142.333 58H123.667C123.317 57.9993 122.971 58.0685 122.648 58.2034C122.325 58.3384 122.031 58.5365 121.783 58.7865C121.535 59.0365 121.339 59.3334 121.204 59.6604C121.07 59.9874 121.001 60.338 121 60.6923V79.5365C121.001 79.8908 121.07 80.2414 121.204 80.5684C121.339 80.8953 121.535 81.1923 121.783 81.4423C122.031 81.6923 122.325 81.8904 122.648 82.0254C122.971 82.1603 123.317 82.2294 123.667 82.2288ZM123.667 82.2288L138.333 67.4222L145 74.1528L123.667 82.2288Z" stroke="#A0AEC0" stroke-width="2" stroke-linecap="round" stroke-linejoin="round"/>
<path d="M126.626 70.4707C128.032 69.4018 129.79 68.3329 131.549 66.9076C130.142 66.1951 128.384 65.1262 126.626 64.0574L126.626 64.0572L126.626 70.4707Z" fill="#E2E8F0" stroke="#A0AEC0" stroke-width="2" stroke-linecap="round" stroke-linejoin="round"/>
</svg>
