<svg xmlns:xlink="http://www.w3.org/1999/xlink" xmlns="http://www.w3.org/2000/svg" viewBox="0 0 266 150" fill="none" width="266"  height="150" ><path fill="#FFFFFF" d="M0 0h266v150H0z"></path><circle cx="56" cy="61" r="8" fill="#C3DAFE"></circle><path d="M20 87.5a1.5 1.5 0 011.5-1.5h65a1.5 1.5 0 010 3h-65a1.5 1.5 0 01-1.5-1.5zM27 94.5a1.5 1.5 0 011.5-1.5h51a1.5 1.5 0 010 3h-51a1.5 1.5 0 01-1.5-1.5z" fill="#A0AEC0"></path><path d="M43 101.5a1.5 1.5 0 011.5-1.5h20a1.5 1.5 0 010 3h-20a1.5 1.5 0 01-1.5-1.5z" fill="#6366F1"></path><rect x="25" y="77" width="58" height="4" rx="2" fill="#4A5568"></rect><circle cx="135" cy="61" r="8" fill="#C3DAFE"></circle><path d="M99 87.5a1.5 1.5 0 011.5-1.5h65a1.5 1.5 0 010 3h-65a1.5 1.5 0 01-1.5-1.5zM106 94.5a1.5 1.5 0 011.5-1.5h51a1.5 1.5 0 010 3h-51a1.5 1.5 0 01-1.5-1.5z" fill="#A0AEC0"></path><path d="M122 101.5a1.5 1.5 0 011.5-1.5h20a1.5 1.5 0 010 3h-20a1.5 1.5 0 01-1.5-1.5z" fill="#6366F1"></path><rect x="104" y="77" width="58" height="4" rx="2" fill="#4A5568"></rect><circle cx="214" cy="61" r="8" fill="#C3DAFE"></circle><path d="M178 87.5a1.5 1.5 0 011.5-1.5h65a1.5 1.5 0 010 3h-65a1.5 1.5 0 01-1.5-1.5zM185 94.5a1.5 1.5 0 011.5-1.5h51a1.5 1.5 0 010 3h-51a1.5 1.5 0 01-1.5-1.5z" fill="#A0AEC0"></path><path d="M201 101.5a1.5 1.5 0 011.5-1.5h20a1.5 1.5 0 010 3h-20a1.5 1.5 0 01-1.5-1.5z" fill="#6366F1"></path><rect x="183" y="77" width="58" height="4" rx="2" fill="#4A5568"></rect><rect x="81" y="32" width="104.391" height="4" rx="2" fill="#A0AEC0"></rect><rect x="96" y="21" width="74" height="5" rx="2.5" fill="#4A5568"></rect><rect x="113" y="120" width="40" height="10" rx="2" fill="#6366F1"></rect></svg>