<svg xmlns:xlink="http://www.w3.org/1999/xlink" xmlns="http://www.w3.org/2000/svg" viewBox="0 0 266 150" fill="none" width="266"  height="150" ><path fill="#FFFFFF" d="M0 0h266v150H0z"></path><rect x="20" y="78" width="69" height="31" rx="2" fill="#E2E8F0"></rect><rect x="113" y="41" width="40" height="3" rx="1.5" fill="#6366F1"></rect><circle cx="28" cy="86" r="3" fill="#6366F1"></circle><rect x="98" y="49" width="70" height="5" rx="2.5" fill="#4A5568"></rect><path d="M25 93a1 1 0 011-1h54a1 1 0 110 2H26a1 1 0 01-1-1zM25 98a1 1 0 011-1h44a1 1 0 110 2H26a1 1 0 01-1-1z" fill="#A0AEC0"></path><path d="M25 103a1 1 0 011-1h11a1 1 0 010 2H26a1 1 0 01-1-1z" fill="#6366F1"></path><rect x="34" y="84.5" width="35" height="3" rx="1.5" fill="#4A5568"></rect><rect x="99" y="78" width="69" height="31" rx="2" fill="#E2E8F0"></rect><circle cx="107" cy="86" r="3" fill="#6366F1"></circle><path d="M104 93a1 1 0 011-1h54a1 1 0 010 2h-54a1 1 0 01-1-1zM104 98a1 1 0 011-1h44a1 1 0 010 2h-44a1 1 0 01-1-1z" fill="#A0AEC0"></path><path d="M104 103a1 1 0 011-1h11a1 1 0 010 2h-11a1 1 0 01-1-1z" fill="#6366F1"></path><rect x="113" y="84.5" width="35" height="3" rx="1.5" fill="#4A5568"></rect><rect x="178" y="78" width="69" height="31" rx="2" fill="#E2E8F0"></rect><circle cx="186" cy="86" r="3" fill="#6366F1"></circle><path d="M183 93a1 1 0 011-1h54a1 1 0 010 2h-54a1 1 0 01-1-1zM183 98a1 1 0 011-1h44a1 1 0 010 2h-44a1 1 0 01-1-1z" fill="#A0AEC0"></path><path d="M183 103a1 1 0 011-1h11a1 1 0 010 2h-11a1 1 0 01-1-1z" fill="#6366F1"></path><rect x="192" y="84.5" width="35" height="3" rx="1.5" fill="#4A5568"></rect></svg>