<svg xmlns:xlink="http://www.w3.org/1999/xlink" xmlns="http://www.w3.org/2000/svg" viewBox="0 0 266 150" fill="none" width="266"  height="150" ><path fill="#FFFFFF" d="M0 0h266v150H0z"></path><path d="M39 70.5a1.5 1.5 0 011.5-1.5h46a1.5 1.5 0 010 3h-46a1.5 1.5 0 01-1.5-1.5zM39 76.5a1.5 1.5 0 011.5-1.5h40a1.5 1.5 0 010 3h-40a1.5 1.5 0 01-1.5-1.5z" fill="#A0AEC0"></path><path d="M39 58.5a1.5 1.5 0 011.5-1.5h14a1.5 1.5 0 010 3h-14a1.5 1.5 0 01-1.5-1.5z" fill="#6366F1"></path><path d="M39 64.5a1.5 1.5 0 011.5-1.5h32a1.5 1.5 0 010 3h-32a1.5 1.5 0 01-1.5-1.5z" fill="#4A5568"></path><path d="M20 60a3 3 0 013-3h6a3 3 0 110 6h-6a3 3 0 01-3-3z" fill="#E2E8F0"></path><circle cx="44" cy="88" r="5" fill="#E2E8F0"></circle><path d="M51 87.5a1.5 1.5 0 011.5-1.5h18a1.5 1.5 0 010 3h-18a1.5 1.5 0 01-1.5-1.5z" fill="#4A5568"></path><path d="M118 70.5a1.5 1.5 0 011.5-1.5h46a1.5 1.5 0 010 3h-46a1.5 1.5 0 01-1.5-1.5zM118 76.5a1.5 1.5 0 011.5-1.5h40a1.5 1.5 0 010 3h-40a1.5 1.5 0 01-1.5-1.5z" fill="#A0AEC0"></path><path d="M118 58.5a1.5 1.5 0 011.5-1.5h14a1.5 1.5 0 010 3h-14a1.5 1.5 0 01-1.5-1.5z" fill="#6366F1"></path><path d="M118 64.5a1.5 1.5 0 011.5-1.5h32a1.5 1.5 0 010 3h-32a1.5 1.5 0 01-1.5-1.5z" fill="#4A5568"></path><path d="M99 60a3 3 0 013-3h6a3 3 0 110 6h-6a3 3 0 01-3-3z" fill="#E2E8F0"></path><circle cx="123" cy="88" r="5" fill="#E2E8F0"></circle><path d="M130 87.5a1.5 1.5 0 011.5-1.5h18a1.5 1.5 0 010 3h-18a1.5 1.5 0 01-1.5-1.5z" fill="#4A5568"></path><path d="M197 70.5a1.5 1.5 0 011.5-1.5h46a1.5 1.5 0 010 3h-46a1.5 1.5 0 01-1.5-1.5zM197 76.5a1.5 1.5 0 011.5-1.5h40a1.5 1.5 0 010 3h-40a1.5 1.5 0 01-1.5-1.5z" fill="#A0AEC0"></path><path d="M197 58.5a1.5 1.5 0 011.5-1.5h14a1.5 1.5 0 010 3h-14a1.5 1.5 0 01-1.5-1.5z" fill="#6366F1"></path><path d="M197 64.5a1.5 1.5 0 011.5-1.5h32a1.5 1.5 0 010 3h-32a1.5 1.5 0 01-1.5-1.5z" fill="#4A5568"></path><path d="M178 60a3 3 0 013-3h6a3 3 0 110 6h-6a3 3 0 01-3-3z" fill="#E2E8F0"></path><circle cx="202" cy="88" r="5" fill="#E2E8F0"></circle><path d="M209 87.5a1.5 1.5 0 011.5-1.5h18a1.5 1.5 0 010 3h-18a1.5 1.5 0 01-1.5-1.5z" fill="#4A5568"></path></svg>