<svg xmlns:xlink="http://www.w3.org/1999/xlink" xmlns="http://www.w3.org/2000/svg" viewBox="0 0 266 150" fill="none" width="266"  height="150" ><path fill="#FFFFFF" d="M0 0h266v150H0z"></path><rect x="20.5" y="54.5" width="107" height="41" rx="1.5" fill="#FFFFFF" stroke="#CBD5E0"></rect><circle cx="32" cy="68" r="6" fill="#C3DAFE"></circle><path d="M44 72.5a1.5 1.5 0 011.5-1.5h68a1.5 1.5 0 010 3h-68a1.5 1.5 0 01-1.5-1.5zM44 79.5a1.5 1.5 0 011.5-1.5h54a1.5 1.5 0 010 3h-54a1.5 1.5 0 01-1.5-1.5z" fill="#A0AEC0"></path><path d="M44 86.5a1.5 1.5 0 011.5-1.5h19a1.5 1.5 0 010 3h-19a1.5 1.5 0 01-1.5-1.5z" fill="#6366F1"></path><rect x="44" y="62" width="32" height="4" rx="2" fill="#4A5568"></rect><rect x="138.5" y="54.5" width="107" height="41" rx="1.5" fill="#FFFFFF" stroke="#CBD5E0"></rect><circle cx="150" cy="68" r="6" fill="#C3DAFE"></circle><path d="M162 72.5a1.5 1.5 0 011.5-1.5h68a1.5 1.5 0 010 3h-68a1.5 1.5 0 01-1.5-1.5zM162 79.5a1.5 1.5 0 011.5-1.5h54a1.5 1.5 0 010 3h-54a1.5 1.5 0 01-1.5-1.5z" fill="#A0AEC0"></path><path d="M162 86.5a1.5 1.5 0 011.5-1.5h19a1.5 1.5 0 010 3h-19a1.5 1.5 0 01-1.5-1.5z" fill="#6366F1"></path><rect x="162" y="62" width="32" height="4" rx="2" fill="#4A5568"></rect></svg>