<svg xmlns:xlink="http://www.w3.org/1999/xlink" xmlns="http://www.w3.org/2000/svg" viewBox="0 0 266 150" fill="none" width="266"  height="150" ><path fill="#FFFFFF" d="M0 0h266v150H0z"></path><path d="M70 61a1 1 0 011-1h58a1 1 0 011 1v8a1 1 0 01-1 1H71a1 1 0 01-1-1v-8z" fill="#E2E8F0"></path><path d="M80 65a1 1 0 011-1h40a1 1 0 010 2H81a1 1 0 01-1-1z" fill="#4A5568"></path><path d="M77 65a2 2 0 11-4 0 2 2 0 014 0z" fill="#6366F1"></path><path d="M136 61a1 1 0 011-1h58a1 1 0 011 1v8a1 1 0 01-1 1h-58a1 1 0 01-1-1v-8z" fill="#E2E8F0"></path><path d="M146 65a1 1 0 011-1h40a1 1 0 010 2h-40a1 1 0 01-1-1z" fill="#4A5568"></path><path d="M143 65a2 2 0 11-4 0 2 2 0 014 0z" fill="#6366F1"></path><path d="M70 77a1 1 0 011-1h58a1 1 0 011 1v8a1 1 0 01-1 1H71a1 1 0 01-1-1v-8z" fill="#E2E8F0"></path><path d="M80 81a1 1 0 011-1h40a1 1 0 010 2H81a1 1 0 01-1-1z" fill="#4A5568"></path><path d="M77 81a2 2 0 11-4 0 2 2 0 014 0z" fill="#6366F1"></path><path d="M136 77a1 1 0 011-1h58a1 1 0 011 1v8a1 1 0 01-1 1h-58a1 1 0 01-1-1v-8z" fill="#E2E8F0"></path><path d="M146 81a1 1 0 011-1h40a1 1 0 010 2h-40a1 1 0 01-1-1z" fill="#4A5568"></path><path d="M143 81a2 2 0 11-4 0 2 2 0 014 0z" fill="#6366F1"></path><path d="M70 93a1 1 0 011-1h58a1 1 0 011 1v8a1 1 0 01-1 1H71a1 1 0 01-1-1v-8z" fill="#E2E8F0"></path><path d="M80 97a1 1 0 011-1h40a1 1 0 010 2H81a1 1 0 01-1-1z" fill="#4A5568"></path><path d="M77 97a2 2 0 11-4 0 2 2 0 014 0z" fill="#6366F1"></path><path d="M136 93a1 1 0 011-1h58a1 1 0 011 1v8a1 1 0 01-1 1h-58a1 1 0 01-1-1v-8z" fill="#E2E8F0"></path><path d="M146 97a1 1 0 011-1h40a1 1 0 010 2h-40a1 1 0 01-1-1z" fill="#4A5568"></path><path d="M143 97a2 2 0 11-4 0 2 2 0 014 0z" fill="#6366F1"></path><rect x="81" y="31" width="104.391" height="4" rx="2" fill="#A0AEC0"></rect><rect x="81" y="31" width="104.391" height="4" rx="2" fill="#A0AEC0"></rect><rect x="96" y="20" width="74" height="5" rx="2.5" fill="#4A5568"></rect><rect x="97" y="39" width="73" height="4" rx="2" fill="#A0AEC0"></rect><rect x="113" y="120" width="40" height="10" rx="2" fill="#6366F1"></rect></svg>