<svg xmlns:xlink="http://www.w3.org/1999/xlink" xmlns="http://www.w3.org/2000/svg" fill="none" viewBox="0 0 266 150" width="266"  height="150" ><path fill="#FFFFFF" d="M0 0h266v150H0z"></path><rect x="67" y="57" width="35" height="3" rx="1.5" fill="#4A5568"></rect><rect x="67" y="65" width="23" height="3" rx="1.5" fill="#A0AEC0"></rect><rect x="67" y="72" width="16" height="3" rx="1.5" fill="#A0AEC0"></rect><rect x="67" y="79" width="28" height="3" rx="1.5" fill="#A0AEC0"></rect><rect x="67" y="86" width="23" height="3" rx="1.5" fill="#A0AEC0"></rect><rect x="20" y="57" width="35" height="3" rx="1.5" fill="#4A5568"></rect><rect x="20" y="65" width="23" height="3" rx="1.5" fill="#A0AEC0"></rect><rect x="20" y="72" width="16" height="3" rx="1.5" fill="#A0AEC0"></rect><rect x="20" y="79" width="28" height="3" rx="1.5" fill="#A0AEC0"></rect><rect x="20" y="86" width="23" height="3" rx="1.5" fill="#A0AEC0"></rect><rect x="115" y="57" width="35" height="3" rx="1.5" fill="#4A5568"></rect><rect x="115" y="65" width="23" height="3" rx="1.5" fill="#A0AEC0"></rect><rect x="115" y="72" width="16" height="3" rx="1.5" fill="#A0AEC0"></rect><rect x="115" y="79" width="28" height="3" rx="1.5" fill="#A0AEC0"></rect><rect x="115" y="86" width="23" height="3" rx="1.5" fill="#A0AEC0"></rect><rect x="163" y="57" width="35" height="3" rx="1.5" fill="#4A5568"></rect><rect x="163" y="65" width="23" height="3" rx="1.5" fill="#A0AEC0"></rect><rect x="163" y="79" width="28" height="3" rx="1.5" fill="#A0AEC0"></rect><rect x="163" y="72" width="16" height="3" rx="1.5" fill="#A0AEC0"></rect><rect x="163" y="86" width="23" height="3" rx="1.5" fill="#A0AEC0"></rect><rect x="211" y="57" width="35" height="3" rx="1.5" fill="#4A5568"></rect><rect x="211" y="65" width="23" height="3" rx="1.5" fill="#A0AEC0"></rect><rect x="211" y="72" width="16" height="3" rx="1.5" fill="#A0AEC0"></rect><rect x="211" y="79" width="28" height="3" rx="1.5" fill="#A0AEC0"></rect><rect x="211" y="86" width="23" height="3" rx="1.5" fill="#A0AEC0"></rect><rect x="199" y="117" width="48" height="3" rx="1.5" fill="#A0AEC0"></rect><path stroke="#E2E8F0" d="M266 103.5H0" fill="none"></path><path d="M79 114a2 2 0 012-2h25a2 2 0 012 2v6a2 2 0 01-2 2H81a2 2 0 01-2-2v-6z" fill="#6366F1"></path><rect x="20" y="112" width="55" height="10" rx="2" fill="#CBD5E0"></rect><path fill="#E2E8F0" d="M0 131h266v19H0z"></path><rect x="20" y="139" width="41" height="3" rx="1.5" fill="#A0AEC0"></rect><rect x="222" y="139" width="25" height="3" rx="1.5" fill="#A0AEC0"></rect></svg>