<svg xmlns:xlink="http://www.w3.org/1999/xlink" xmlns="http://www.w3.org/2000/svg" viewBox="0 0 266 150" fill="none" width="266"  height="150" ><path fill="#FFFFFF" d="M0 0h266v150H0z"></path><path d="M79 88a2 2 0 012-2h25a2 2 0 012 2v6a2 2 0 01-2 2H81a2 2 0 01-2-2v-6z" fill="#6366F1"></path><rect x="20" y="86" width="55" height="10" rx="2" fill="#CBD5E0"></rect><rect x="20" y="64" width="104" height="4" rx="2" fill="#A0AEC0"></rect><rect x="20" y="53" width="72" height="5" rx="2.5" fill="#4A5568"></rect><rect x="20" y="72" width="97" height="4" rx="2" fill="#A0AEC0"></rect><path d="M176.778 92h26.444A3.778 3.778 0 00207 88.222V61.778A3.778 3.778 0 00203.222 58h-26.444A3.778 3.778 0 00173 61.778v26.444A3.778 3.778 0 00176.778 92zm0 0l20.778-20.778L207 80.667m-20.778-12.278a2.833 2.833 0 11-5.666 0 2.833 2.833 0 015.666 0z" stroke="#A0AEC0" stroke-width="3px" stroke-linecap="round" stroke-linejoin="round" fill="none"></path></svg>