<svg xmlns:xlink="http://www.w3.org/1999/xlink" xmlns="http://www.w3.org/2000/svg" viewBox="0 0 266 150" fill="none" width="266"  height="150" ><path fill="#FFFFFF" d="M0 0h266v150H0z"></path><path d="M78 41v-1h110v1H78z" fill="#CBD5E0"></path><path stroke="#6366F1" d="M78 40.5h28" fill="none"></path><path d="M78 31a2 2 0 012-2h24a2 2 0 012 2v9H78v-9z" fill="#EBF4FF"></path><path d="M82 35a1 1 0 011-1h18a1 1 0 010 2H83a1 1 0 01-1-1z" fill="#6366F1"></path><path d="M112 35a1 1 0 011-1h18a1 1 0 010 2h-18a1 1 0 01-1-1zM138 35a1 1 0 011-1h18a1 1 0 010 2h-18a1 1 0 01-1-1zM164 35a1 1 0 011-1h18a1 1 0 010 2h-18a1 1 0 01-1-1z" fill="#4A5568"></path><path d="M122.889 87h20.222A2.889 2.889 0 00146 84.111V63.89a2.889 2.889 0 00-2.889-2.89h-20.222A2.889 2.889 0 00120 63.889V84.11a2.889 2.889 0 002.889 2.89zm0 0l15.889-15.889L146 78.333m-15.889-9.389a2.167 2.167 0 11-4.333 0 2.167 2.167 0 014.333 0z" stroke="#A0AEC0" stroke-width="2px" stroke-linecap="round" stroke-linejoin="round" fill="none"></path><path d="M85 111.5a1.5 1.5 0 011.5-1.5h93a1.5 1.5 0 010 3h-93a1.5 1.5 0 01-1.5-1.5zM80 118.5a1.5 1.5 0 011.5-1.5h104a1.5 1.5 0 010 3h-104a1.5 1.5 0 01-1.5-1.5z" fill="#A0AEC0"></path><rect x="100" y="101" width="67" height="4" rx="2" fill="#4A5568"></rect></svg>