<svg width="266" height="150" viewBox="0 0 266 150" fill="none" xmlns="http://www.w3.org/2000/svg">
<path d="M0 0H266V150H0V0Z" fill="white"/>
<path d="M195 32H72C70.8954 32 70 32.7555 70 33.6875V106.25C70 107.182 70.8954 107.938 72 107.938H195C196.105 107.938 197 107.182 197 106.25V33.6875C197 32.7555 196.105 32 195 32Z" fill="#E2E8F0"/>
<path d="M144 67.3899C144 76.2517 133 83.8437 133 83.8437C133 83.8437 122 76.2517 122 67.3899C121.995 64.3825 123.151 61.4922 125.221 59.3357C126.233 58.2825 127.442 57.4449 128.778 56.872C130.114 56.2991 131.549 56.0027 133 56C135.917 56 138.714 57.201 140.779 59.3357C142.85 61.4924 144.006 64.3837 144 67.3918V67.3899Z" fill="#E2E8F0" stroke="#A0AEC0" stroke-width="2" stroke-linecap="round" stroke-linejoin="round"/>
<path d="M133 71.1878C135.026 71.1878 136.667 69.4875 136.667 67.3899C136.667 65.2924 135.026 63.5939 133 63.5939C130.974 63.5939 129.333 65.2942 129.333 67.3899C129.333 69.4875 130.974 71.1878 133 71.1878Z" fill="#E2E8F0" stroke="#A0AEC0" stroke-width="2" stroke-linecap="round" stroke-linejoin="round"/>
</svg>
