<svg width="266" height="150" viewBox="0 0 266 150" fill="none" xmlns="http://www.w3.org/2000/svg">
<path d="M0 0H266V150H0V0Z" fill="white"/>
<path d="M126 54.5H42C41.1716 54.5 40.5 55.188 40.5 56.0366V94.9634C40.5 95.812 41.1716 96.5 42 96.5H126C126.828 96.5 127.5 95.812 127.5 94.9634V56.0366C127.5 55.188 126.828 54.5 126 54.5Z" fill="white" stroke="#CBD5E0" stroke-width="2"/>
<path d="M224 54.5H140C139.172 54.5 138.5 55.188 138.5 56.0366V94.9634C138.5 95.812 139.172 96.5 140 96.5H224C224.828 96.5 225.5 95.812 225.5 94.9634V56.0366C225.5 55.188 224.828 54.5 224 54.5Z" fill="white" stroke="#CBD5E0" stroke-width="2"/>
</svg>
