<svg width="266" height="150" viewBox="0 0 266 150" fill="none" xmlns="http://www.w3.org/2000/svg">
<path d="M0 0H266V150H0V0Z" fill="white"/>
<path d="M195 32H72C70.8954 32 70 32.7561 70 33.6889V106.311C70 107.244 70.8954 108 72 108H195C196.105 108 197 107.244 197 106.311V33.6889C197 32.7561 196.105 32 195 32Z" fill="#E2E8F0"/>
<path d="M124.667 82.2288H143.333C143.683 82.2294 144.029 82.1603 144.352 82.0254C144.675 81.8904 144.969 81.6923 145.217 81.4423C145.465 81.1923 145.661 80.8953 145.796 80.5684C145.93 80.2414 145.999 79.8908 146 79.5365V60.6923C145.999 60.338 145.93 59.9874 145.796 59.6604C145.661 59.3334 145.465 59.0365 145.217 58.7865C144.969 58.5365 144.675 58.3384 144.352 58.2034C144.029 58.0685 143.683 57.9993 143.333 58H124.667C124.317 57.9993 123.971 58.0685 123.648 58.2034C123.325 58.3384 123.031 58.5365 122.783 58.7865C122.535 59.0365 122.339 59.3334 122.204 59.6604C122.07 59.9874 122.001 60.338 122 60.6923V79.5365C122.001 79.8908 122.07 80.2414 122.204 80.5684C122.339 80.8953 122.535 81.1923 122.783 81.4423C123.031 81.6923 123.325 81.8904 123.648 82.0254C123.971 82.1603 124.317 82.2294 124.667 82.2288ZM124.667 82.2288L139.333 67.4222L146 74.1528L124.667 82.2288ZM131.333 65.4033C131.332 65.9398 131.121 66.4538 130.746 66.8324C130.371 67.211 129.863 67.4231 129.333 67.4222C128.804 67.4231 128.296 67.211 127.921 66.8324C127.546 66.4538 127.334 65.9398 127.333 65.4033C127.334 64.8669 127.546 64.3529 127.921 63.9743C128.296 63.5957 128.804 63.3836 129.333 63.3845C129.863 63.3836 130.371 63.5957 130.746 63.9743C131.121 64.3529 131.332 64.8669 131.333 65.4033Z" fill="#E2E8F0"/>
<path d="M124.667 82.2288H143.333C143.683 82.2294 144.029 82.1603 144.352 82.0254C144.675 81.8904 144.969 81.6923 145.217 81.4423C145.465 81.1923 145.661 80.8953 145.796 80.5684C145.93 80.2414 145.999 79.8908 146 79.5365V60.6923C145.999 60.338 145.93 59.9874 145.796 59.6604C145.661 59.3334 145.465 59.0365 145.217 58.7865C144.969 58.5365 144.675 58.3384 144.352 58.2034C144.029 58.0685 143.683 57.9993 143.333 58H124.667C124.317 57.9993 123.971 58.0685 123.648 58.2034C123.325 58.3384 123.031 58.5365 122.783 58.7865C122.535 59.0365 122.339 59.3334 122.204 59.6604C122.07 59.9874 122.001 60.338 122 60.6923V79.5365C122.001 79.8908 122.07 80.2414 122.204 80.5684C122.339 80.8953 122.535 81.1923 122.783 81.4423C123.031 81.6923 123.325 81.8904 123.648 82.0254C123.971 82.1603 124.317 82.2294 124.667 82.2288ZM124.667 82.2288L139.333 67.4222L146 74.1528L124.667 82.2288ZM131.333 65.4033C131.332 65.9398 131.121 66.4538 130.746 66.8324C130.371 67.211 129.863 67.4231 129.333 67.4222C128.804 67.4231 128.296 67.211 127.921 66.8324C127.546 66.4538 127.334 65.9398 127.333 65.4033C127.334 64.8669 127.546 64.3529 127.921 63.9743C128.296 63.5957 128.804 63.3836 129.333 63.3845C129.863 63.3836 130.371 63.5957 130.746 63.9743C131.121 64.3529 131.332 64.8669 131.333 65.4033Z" stroke="#A0AEC0" stroke-width="2" stroke-linecap="round" stroke-linejoin="round"/>
</svg>
