<svg width="266" height="150" viewBox="0 0 266 150" fill="none" xmlns="http://www.w3.org/2000/svg">
<path d="M0 0H266V150H0V0Z" fill="white"/>
<path d="M83 64.5C83 63.837 83.2519 63.2011 83.7004 62.7322C84.1489 62.2634 84.7571 62 85.3913 62H175.065C175.699 62 176.308 62.2634 176.756 62.7322C177.205 63.2011 177.457 63.837 177.457 64.5C177.457 65.163 177.205 65.7989 176.756 66.2678C176.308 66.7366 175.699 67 175.065 67H85.3913C84.7571 67 84.1489 66.7366 83.7004 66.2678C83.2519 65.7989 83 65.163 83 64.5ZM83 74.5C83 73.837 83.2519 73.2011 83.7004 72.7322C84.1489 72.2634 84.7571 72 85.3913 72H190.609C191.243 72 191.851 72.2634 192.3 72.7322C192.748 73.2011 193 73.837 193 74.5C193 75.163 192.748 75.7989 192.3 76.2678C191.851 76.7366 191.243 77 190.609 77H85.3913C84.7571 77 84.1489 76.7366 83.7004 76.2678C83.2519 75.7989 83 75.163 83 74.5ZM83 84.5C83 83.837 83.2519 83.2011 83.7004 82.7322C84.1489 82.2634 84.7571 82 85.3913 82H157.13C157.765 82 158.373 82.2634 158.821 82.7322C159.27 83.2011 159.522 83.837 159.522 84.5C159.522 85.163 159.27 85.7989 158.821 86.2678C158.373 86.7366 157.765 87 157.13 87H85.3913C84.7571 87 84.1489 86.7366 83.7004 86.2678C83.2519 85.7989 83 85.163 83 84.5Z" fill="#6366F1"/>
</svg>
