<svg xmlns:xlink="http://www.w3.org/1999/xlink" xmlns="http://www.w3.org/2000/svg" viewBox="0 0 266 150" fill="none" width="266"  height="150" ><path fill="#FFFFFF" d="M0 0h266v150H0z"></path><rect x="113" y="120" width="40" height="10" rx="2" fill="#6366F1"></rect><rect x="81" y="31" width="104.391" height="4" rx="2" fill="#A0AEC0"></rect><rect x="96" y="20" width="74" height="5" rx="2.5" fill="#4A5568"></rect><rect x="85" y="39" width="97.365" height="4" rx="2" fill="#A0AEC0"></rect><rect x="26" y="73" width="28" height="3" rx="1.5" fill="#4A5568"></rect><rect x="26" y="79" width="34" height="2" rx="1" fill="#A0AEC0"></rect><rect x="26" y="84" width="38" height="2" rx="1" fill="#A0AEC0"></rect><rect x="26" y="89" width="24" height="2" rx="1" fill="#6366F1"></rect><rect x="20" y="62" width="1" height="39" rx="0.5" fill="#CBD5E0"></rect><rect x="86" y="73" width="28" height="3" rx="1.5" fill="#4A5568"></rect><rect x="86" y="79" width="34" height="2" rx="1" fill="#A0AEC0"></rect><rect x="86" y="84" width="38" height="2" rx="1" fill="#A0AEC0"></rect><rect x="86" y="89" width="24" height="2" rx="1" fill="#6366F1"></rect><rect x="80" y="62" width="1" height="39" rx="0.5" fill="#CBD5E0"></rect><rect x="146.136" y="73" width="28.636" height="3" rx="1.5" fill="#4A5568"></rect><rect x="146.136" y="79" width="34.773" height="2" rx="1" fill="#A0AEC0"></rect><rect x="146.136" y="84" width="38.864" height="2" rx="1" fill="#A0AEC0"></rect><rect x="146.136" y="89" width="24.546" height="2" rx="1" fill="#6366F1"></rect><rect x="140" y="62" width="1.023" height="39" rx="0.511" fill="#CBD5E0"></rect><rect x="207.136" y="73" width="28.636" height="3" rx="1.5" fill="#4A5568"></rect><rect x="207.136" y="79" width="34.773" height="2" rx="1" fill="#A0AEC0"></rect><rect x="207.136" y="84" width="38.864" height="2" rx="1" fill="#A0AEC0"></rect><rect x="207.136" y="89" width="24.546" height="2" rx="1" fill="#6366F1"></rect><rect x="201" y="62" width="1.023" height="39" rx="0.511" fill="#CBD5E0"></rect></svg>