<svg xmlns:xlink="http://www.w3.org/1999/xlink" xmlns="http://www.w3.org/2000/svg" viewBox="0 0 266 150" fill="none" width="266"  height="150" ><path fill="#FFFFFF" d="M0 0h266v150H0z"></path><rect x="113" y="120" width="40" height="10" rx="2" fill="#6366F1"></rect><rect x="81" y="31" width="104.391" height="4" rx="2" fill="#A0AEC0"></rect><rect x="96" y="20" width="74" height="5" rx="2.5" fill="#4A5568"></rect><rect x="20.5" y="51.5" width="69" height="23" rx="1.5" fill="#FFFFFF" stroke="#CBD5E0"></rect><rect x="24" y="65" width="28" height="2" rx="1" fill="#4A5568"></rect><rect x="24" y="69" width="34" height="2" rx="1" fill="#A0AEC0"></rect><circle cx="28" cy="59" r="4" fill="#C3DAFE"></circle><rect x="98.5" y="51.5" width="69" height="23" rx="1.5" fill="#FFFFFF" stroke="#CBD5E0"></rect><rect x="102" y="65" width="28" height="2" rx="1" fill="#4A5568"></rect><rect x="102" y="69" width="34" height="2" rx="1" fill="#A0AEC0"></rect><circle cx="106" cy="59" r="4" fill="#C3DAFE"></circle><rect x="176.5" y="51.5" width="69" height="23" rx="1.5" fill="#FFFFFF" stroke="#CBD5E0"></rect><rect x="180" y="65" width="28" height="2" rx="1" fill="#4A5568"></rect><rect x="180" y="69" width="34" height="2" rx="1" fill="#A0AEC0"></rect><circle cx="184" cy="59" r="4" fill="#C3DAFE"></circle><rect x="20.5" y="81.5" width="69" height="23" rx="1.5" fill="#FFFFFF" stroke="#CBD5E0"></rect><rect x="24" y="95" width="28" height="2" rx="1" fill="#4A5568"></rect><rect x="24" y="99" width="34" height="2" rx="1" fill="#A0AEC0"></rect><circle cx="28" cy="89" r="4" fill="#C3DAFE"></circle><rect x="98.5" y="81.5" width="69" height="23" rx="1.5" fill="#FFFFFF" stroke="#CBD5E0"></rect><rect x="102" y="95" width="28" height="2" rx="1" fill="#4A5568"></rect><rect x="102" y="99" width="34" height="2" rx="1" fill="#A0AEC0"></rect><circle cx="106" cy="89" r="4" fill="#C3DAFE"></circle><rect x="176.5" y="81.5" width="69" height="23" rx="1.5" fill="#FFFFFF" stroke="#CBD5E0"></rect><rect x="180" y="95" width="28" height="2" rx="1" fill="#4A5568"></rect><rect x="180" y="99" width="34" height="2" rx="1" fill="#A0AEC0"></rect><circle cx="184" cy="89" r="4" fill="#C3DAFE"></circle></svg>