<svg xmlns:xlink="http://www.w3.org/1999/xlink" xmlns="http://www.w3.org/2000/svg" viewBox="0 0 266 150" fill="none" width="266"  height="150" ><path fill="#FFFFFF" d="M0 0h266v150H0z"></path><rect x="142" y="32" width="104.391" height="4" rx="2" fill="#A0AEC0"></rect><rect x="20" y="32" width="74" height="5" rx="2.5" fill="#4A5568"></rect><rect x="142" y="40" width="77" height="4" rx="2" fill="#A0AEC0"></rect><rect x="20" y="74" width="50" height="44" rx="2" fill="#E2E8F0"></rect><path d="M40.333 95h9.334c.736 0 1.333-.597 1.333-1.333v-9.334c0-.736-.597-1.333-1.333-1.333h-9.334c-.736 0-1.333.597-1.333 1.333v9.334c0 .736.597 1.333 1.333 1.333zm0 0l7.334-7.333L51 91m-7.333-4.333a1 1 0 11-2 0 1 1 0 012 0z" stroke="#A0AEC0" stroke-linecap="round" stroke-linejoin="round" fill="none"></path><rect x="24" y="108" width="28" height="2" rx="1" fill="#4A5568"></rect><rect x="24" y="112" width="34" height="2" rx="1" fill="#A0AEC0"></rect><rect x="24" y="104" width="10" height="2" rx="1" fill="#6366F1"></rect><rect x="79" y="74" width="50" height="44" rx="2" fill="#E2E8F0"></rect><path d="M99.333 95h9.334c.736 0 1.333-.597 1.333-1.333v-9.334c0-.736-.597-1.333-1.333-1.333h-9.334c-.736 0-1.333.597-1.333 1.333v9.334c0 .736.597 1.333 1.333 1.333zm0 0l7.334-7.333L110 91m-7.333-4.333a1 1 0 11-2 0 1 1 0 012 0z" stroke="#A0AEC0" stroke-linecap="round" stroke-linejoin="round" fill="none"></path><rect x="83" y="108" width="28" height="2" rx="1" fill="#4A5568"></rect><rect x="83" y="112" width="34" height="2" rx="1" fill="#A0AEC0"></rect><rect x="83" y="104" width="10" height="2" rx="1" fill="#6366F1"></rect><rect x="138" y="74" width="50" height="44" rx="2" fill="#E2E8F0"></rect><path d="M158.333 95h9.334c.736 0 1.333-.597 1.333-1.333v-9.334c0-.736-.597-1.333-1.333-1.333h-9.334c-.736 0-1.333.597-1.333 1.333v9.334c0 .736.597 1.333 1.333 1.333zm0 0l7.334-7.333L169 91m-7.333-4.333a1 1 0 11-2 0 1 1 0 012 0z" stroke="#A0AEC0" stroke-linecap="round" stroke-linejoin="round" fill="none"></path><rect x="142" y="108" width="28" height="2" rx="1" fill="#4A5568"></rect><rect x="142" y="112" width="34" height="2" rx="1" fill="#A0AEC0"></rect><rect x="142" y="104" width="10" height="2" rx="1" fill="#6366F1"></rect><rect x="197" y="74" width="50" height="44" rx="2" fill="#E2E8F0"></rect><path d="M217.333 95h9.334c.736 0 1.333-.597 1.333-1.333v-9.334c0-.736-.597-1.333-1.333-1.333h-9.334c-.736 0-1.333.597-1.333 1.333v9.334c0 .736.597 1.333 1.333 1.333zm0 0l7.334-7.333L228 91m-7.333-4.333a1 1 0 11-2 0 1 1 0 012 0z" stroke="#A0AEC0" stroke-linecap="round" stroke-linejoin="round" fill="none"></path><rect x="201" y="108" width="28" height="2" rx="1" fill="#4A5568"></rect><rect x="201" y="112" width="34" height="2" rx="1" fill="#A0AEC0"></rect><rect x="201" y="104" width="10" height="2" rx="1" fill="#6366F1"></rect></svg>