<svg xmlns:xlink="http://www.w3.org/1999/xlink" xmlns="http://www.w3.org/2000/svg" viewBox="0 0 266 150" fill="none" width="266"  height="150" ><path fill="#FFFFFF" d="M0 0h266v150H0z"></path><path d="M52.792 91h26.544a3.785 3.785 0 003.792-3.778V60.778A3.785 3.785 0 0079.336 57H52.792A3.785 3.785 0 0049 60.778v26.444A3.785 3.785 0 0052.792 91zm0 0l20.856-20.778 9.48 9.445M62.272 67.389a2.839 2.839 0 01-2.844 2.833 2.839 2.839 0 01-2.844-2.833 2.839 2.839 0 012.844-2.833 2.839 2.839 0 012.844 2.833z" stroke="#A0AEC0" stroke-width="3px" stroke-linecap="round" stroke-linejoin="round" fill="none"></path><rect x="133" y="42" width="74" height="5" rx="2.5" fill="#4A5568"></rect><rect x="133" y="105" width="26" height="5" rx="2.5" fill="#4A5568"></rect><rect x="133" y="35" width="38" height="3" rx="1.5" fill="#CBD5E0"></rect><rect x="133" y="51" width="26" height="3" rx="1.5" fill="#6366F1"></rect><rect x="133" y="64" width="92" height="4" rx="2" fill="#A0AEC0"></rect><circle cx="241" cy="108" r="5" fill="#E2E8F0"></circle><path d="M245.5 94a.5.5 0 010 1h-112a.5.5 0 010-1h112z" fill="#E2E8F0"></path><rect x="200" y="103" width="31" height="10" rx="2" fill="#6366F1"></rect><rect x="133" y="72" width="82" height="4" rx="2" fill="#A0AEC0"></rect><rect x="133" y="80" width="68" height="4" rx="2" fill="#A0AEC0"></rect></svg>