<svg xmlns:xlink="http://www.w3.org/1999/xlink" xmlns="http://www.w3.org/2000/svg" viewBox="0 0 266 150" fill="none" width="266"  height="150" ><path fill="#FFFFFF" d="M0 0h266v150H0z"></path><circle cx="88" cy="28" r="8" fill="#C3DAFE"></circle><path d="M102 28a1 1 0 011-1h68a1 1 0 010 2h-68a1 1 0 01-1-1z" fill="#A0AEC0"></path><path d="M102 33a1 1 0 011-1h14a1 1 0 010 2h-14a1 1 0 01-1-1z" fill="#6366F1"></path><rect x="102" y="21" width="40" height="3" rx="1.5" fill="#4A5568"></rect><circle cx="88" cy="98" r="8" fill="#C3DAFE"></circle><path d="M102 98a1 1 0 011-1h68a1 1 0 010 2h-68a1 1 0 01-1-1z" fill="#A0AEC0"></path><path d="M102 103a1 1 0 011-1h14a1 1 0 010 2h-14a1 1 0 01-1-1z" fill="#6366F1"></path><rect x="102" y="91" width="40" height="3" rx="1.5" fill="#4A5568"></rect><circle cx="178" cy="63" r="8" fill="#C3DAFE"></circle><path d="M80 63a1 1 0 011-1h68a1 1 0 010 2H81a1 1 0 01-1-1z" fill="#A0AEC0"></path><path d="M80 68a1 1 0 011-1h14a1 1 0 110 2H81a1 1 0 01-1-1z" fill="#6366F1"></path><rect x="80" y="56" width="40" height="3" rx="1.5" fill="#4A5568"></rect><rect x="113" y="120" width="40" height="10" rx="2" fill="#6366F1"></rect><path d="M185.5 45a.5.5 0 010 1h-105a.5.5 0 010-1h105zM185.5 80a.5.5 0 010 1h-105a.5.5 0 010-1h105z" fill="#CBD5E0"></path></svg>