<svg xmlns:xlink="http://www.w3.org/1999/xlink" xmlns="http://www.w3.org/2000/svg" fill="none" viewBox="0 0 266 150" width="266"  height="150" ><path fill="#FFFFFF" d="M0 0h266v150H0z"></path><rect x="63.385" y="76" width="32.308" height="3" rx="1.5" fill="#4A5568"></rect><rect x="63.385" y="84" width="21.231" height="3" rx="1.5" fill="#A0AEC0"></rect><rect x="63.385" y="91" width="14.769" height="3" rx="1.5" fill="#A0AEC0"></rect><rect x="63.385" y="98" width="25.846" height="3" rx="1.5" fill="#A0AEC0"></rect><rect x="63.385" y="105" width="21.231" height="3" rx="1.5" fill="#A0AEC0"></rect><rect x="20" y="76" width="32.308" height="3" rx="1.5" fill="#4A5568"></rect><rect x="20" y="84" width="21.231" height="3" rx="1.5" fill="#A0AEC0"></rect><rect x="20" y="91" width="14.769" height="3" rx="1.5" fill="#A0AEC0"></rect><rect x="20" y="98" width="25.846" height="3" rx="1.5" fill="#A0AEC0"></rect><rect x="20" y="105" width="21.231" height="3" rx="1.5" fill="#A0AEC0"></rect><rect x="107.692" y="76" width="32.308" height="3" rx="1.5" fill="#4A5568"></rect><rect x="163" y="76" width="32.308" height="3" rx="1.5" fill="#4A5568"></rect><rect x="107.692" y="84" width="21.231" height="3" rx="1.5" fill="#A0AEC0"></rect><rect x="107.692" y="91" width="14.769" height="3" rx="1.5" fill="#A0AEC0"></rect><rect x="107.692" y="98" width="25.846" height="3" rx="1.5" fill="#A0AEC0"></rect><rect x="107.692" y="105" width="21.231" height="3" rx="1.5" fill="#A0AEC0"></rect><path d="M217 86a2 2 0 012-2h25a2 2 0 012 2v6a2 2 0 01-2 2h-25a2 2 0 01-2-2v-6z" fill="#6366F1"></path><rect x="163" y="84" width="50" height="10" rx="2" fill="#CBD5E0"></rect><path fill="#E2E8F0" d="M0 119h266v31H0z"></path><circle cx="28.5" cy="134.5" r="8.5" fill="#6366F1"></circle><rect x="45" y="133" width="30" height="3" rx="1.5" fill="#A0AEC0"></rect><rect x="198" y="133" width="48" height="3" rx="1.5" fill="#A0AEC0"></rect></svg>