<svg xmlns:xlink="http://www.w3.org/1999/xlink" xmlns="http://www.w3.org/2000/svg" viewBox="0 0 266 150" fill="none" width="266"  height="150" ><path fill="#FFFFFF" d="M0 0h266v150H0z"></path><path d="M24 28.5a.5.5 0 011 0v94a.5.5 0 01-1 0v-94z" fill="#CBD5E0"></path><path d="M29 30.5a4.5 4.5 0 11-9 0 4.5 4.5 0 019 0z" fill="#6366F1"></path><path d="M34 35a1 1 0 011-1h54a1 1 0 110 2H35a1 1 0 01-1-1z" fill="#A0AEC0"></path><rect x="34" y="28" width="35" height="3" rx="1.5" fill="#4A5568"></rect><path d="M29 52.5a4.5 4.5 0 11-9 0 4.5 4.5 0 019 0z" fill="#6366F1"></path><path d="M34 57a1 1 0 011-1h54a1 1 0 110 2H35a1 1 0 01-1-1z" fill="#A0AEC0"></path><rect x="34" y="50" width="35" height="3" rx="1.5" fill="#4A5568"></rect><path d="M29 74.5a4.5 4.5 0 11-9 0 4.5 4.5 0 019 0z" fill="#6366F1"></path><path d="M34 79a1 1 0 011-1h54a1 1 0 110 2H35a1 1 0 01-1-1z" fill="#A0AEC0"></path><rect x="34" y="72" width="35" height="3" rx="1.5" fill="#4A5568"></rect><path d="M29 96.5a4.5 4.5 0 11-9 0 4.5 4.5 0 019 0z" fill="#6366F1"></path><path d="M34 101a1 1 0 011-1h54a1 1 0 010 2H35a1 1 0 01-1-1z" fill="#A0AEC0"></path><rect x="34" y="94" width="35" height="3" rx="1.5" fill="#4A5568"></rect><path d="M29 118.5a4.5 4.5 0 11-9 0 4.5 4.5 0 019 0z" fill="#6366F1"></path><path d="M34 123a1 1 0 011-1h54a1 1 0 010 2H35a1 1 0 01-1-1z" fill="#A0AEC0"></path><rect x="34" y="116" width="35" height="3" rx="1.5" fill="#4A5568"></rect><path d="M175.792 89h26.544a3.785 3.785 0 003.792-3.778V58.778A3.785 3.785 0 00202.336 55h-26.544A3.785 3.785 0 00172 58.778v26.444A3.785 3.785 0 00175.792 89zm0 0l20.856-20.778 9.48 9.445m-20.856-12.278a2.838 2.838 0 01-2.844 2.833 2.838 2.838 0 01-2.844-2.833 2.838 2.838 0 012.844-2.833 2.838 2.838 0 012.844 2.833z" stroke="#A0AEC0" stroke-width="3px" stroke-linecap="round" stroke-linejoin="round" fill="none"></path></svg>