<svg xmlns:xlink="http://www.w3.org/1999/xlink" xmlns="http://www.w3.org/2000/svg" viewBox="0 0 266 150" fill="none" width="266"  height="150" ><path fill="#FFFFFF" d="M0 0h266v150H0z"></path><path d="M139.282 32h-4.365a.708.708 0 00-.718.697v4.239c0 .385.322.697.718.697h2.089c-.027 1.11-.293 1.998-.795 2.666-.396.527-.997.963-1.799 1.308a.687.687 0 00-.356.935l.517 1.06c.166.34.578.49.934.34.951-.398 1.753-.903 2.408-1.517.798-.748 1.346-1.593 1.641-2.536.296-.943.444-2.228.444-3.86v-3.332a.708.708 0 00-.718-.697zM127.523 43.94c.939-.398 1.737-.903 2.396-1.515.805-.748 1.355-1.59 1.651-2.526.296-.936.444-2.226.444-3.87v-3.332a.708.708 0 00-.718-.697h-4.365a.708.708 0 00-.718.697v4.239c0 .385.322.697.718.697h2.089c-.027 1.11-.293 1.998-.795 2.666-.397.527-.997.963-1.799 1.308a.689.689 0 00-.357.935l.516 1.057c.166.34.581.491.938.34z" fill="#A0AEC0"></path><rect x="95" y="58" width="76" height="4" rx="2" fill="#A0AEC0"></rect><rect x="123" y="94" width="20" height="2" rx="1" fill="#6366F1"></rect><rect x="89" y="66" width="88" height="4" rx="2" fill="#A0AEC0"></rect><rect x="92" y="74" width="83" height="4" rx="2" fill="#A0AEC0"></rect><rect x="103" y="82" width="60" height="4" rx="2" fill="#A0AEC0"></rect><rect x="113" y="104" width="40" height="4" rx="2" fill="#4A5568"></rect><rect x="106" y="112" width="54" height="4" rx="2" fill="#CBD5E0"></rect></svg>